<?xml version="1.0" encoding="UTF-8"?>
<!-- favicon.svg · identisch zum App-Emblem (logo.svg), wird im Browser-Tab angezeigt. -->
<svg width="64" height="64" viewBox="0 0 64 64" fill="none" xmlns="http://www.w3.org/2000/svg" role="img" aria-label="Sparkurs">
  <defs>
    <linearGradient id="f-shield" x1="32" y1="3" x2="32" y2="61" gradientUnits="userSpaceOnUse">
      <stop offset="0" stop-color="#1b2a38"/><stop offset="1" stop-color="#0c151d"/>
    </linearGradient>
    <linearGradient id="f-grow" x1="16" y1="50" x2="48" y2="16" gradientUnits="userSpaceOnUse">
      <stop offset="0" stop-color="#0fd99a"/><stop offset="1" stop-color="#1fc8e3"/>
    </linearGradient>
    <radialGradient id="f-coin" cx="0.35" cy="0.32" r="0.85">
      <stop offset="0" stop-color="#ffe6a0"/><stop offset="0.55" stop-color="#f4c14b"/><stop offset="1" stop-color="#d29a25"/>
    </radialGradient>
    <linearGradient id="f-stroke" x1="14" y1="48" x2="46" y2="18" gradientUnits="userSpaceOnUse">
      <stop offset="0" stop-color="#19e3a6"/><stop offset="1" stop-color="#33d3ef"/>
    </linearGradient>
  </defs>
  <rect width="64" height="64" rx="14" fill="#0c151d"/>
  <path d="M32 6 L52 13 V30 C52 42.5 44.5 51 32 57 C19.5 51 12 42.5 12 30 V13 Z" fill="url(#f-shield)" stroke="#2f4456" stroke-width="1.4" stroke-linejoin="round"/>
  <g opacity="0.92">
    <rect x="19" y="37" width="6.5" height="9" rx="1.6" fill="url(#f-grow)" opacity="0.55"/>
    <rect x="28" y="32" width="6.5" height="14" rx="1.6" fill="url(#f-grow)" opacity="0.78"/>
    <rect x="37" y="26" width="6.5" height="20" rx="1.6" fill="url(#f-grow)"/>
  </g>
  <path d="M17 42 L29 35 L40 27" fill="none" stroke="url(#f-stroke)" stroke-width="3.4" stroke-linecap="round" stroke-linejoin="round"/>
  <circle cx="44" cy="22.5" r="7.6" fill="url(#f-coin)" stroke="#b9831c" stroke-width="0.8"/>
  <text x="44" y="25.8" text-anchor="middle" font-family="Georgia, serif" font-size="7" font-weight="700" fill="#7a5510">Fr</text>
</svg>
